<svg width="24" height="25" viewBox="0 0 24 25" fill="none" xmlns="http://www.w3.org/2000/svg">
<path fill-rule="evenodd" clip-rule="evenodd" d="M1.5 12.5001C1.5 12.3343 1.57902 12.1753 1.71967 12.0581C1.86032 11.9409 2.05109 11.8751 2.25 11.8751H19.9395L15.219 7.94256C15.0782 7.8252 14.9991 7.66603 14.9991 7.50006C14.9991 7.33409 15.0782 7.17492 15.219 7.05756C15.3598 6.9402 15.5508 6.87427 15.75 6.87427C15.9492 6.87427 16.1402 6.9402 16.281 7.05756L22.281 12.0576C22.3508 12.1156 22.4063 12.1846 22.4441 12.2605C22.4819 12.3364 22.5013 12.4178 22.5013 12.5001C22.5013 12.5823 22.4819 12.6637 22.4441 12.7396C22.4063 12.8155 22.3508 12.8845 22.281 12.9426L16.281 17.9426C16.1402 18.0599 15.9492 18.1258 15.75 18.1258C15.5508 18.1258 15.3598 18.0599 15.219 17.9426C15.0782 17.8252 14.9991 17.666 14.9991 17.5001C14.9991 17.3341 15.0782 17.1749 15.219 17.0576L19.9395 13.1251H2.25C2.05109 13.1251 1.86032 13.0592 1.71967 12.942C1.57902 12.8248 1.5 12.6658 1.5 12.5001Z" fill="#1E1E1E"/>
</svg>
