<svg width="24" height="24" viewBox="0 0 24 24" fill="none" xmlns="http://www.w3.org/2000/svg">
<path d="M16.6776 14.93C17.888 13.2784 18.4301 11.2306 18.1955 9.19644C17.9609 7.16226 16.9668 5.29168 15.4123 3.95892C13.8577 2.62615 11.8573 1.92951 9.81113 2.00835C7.76499 2.08719 5.82407 2.93571 4.37667 4.38414C2.92927 5.83257 2.08215 7.7741 2.00477 9.8203C1.92739 11.8665 2.62547 13.8665 3.95934 15.4201C5.29322 16.9737 7.16451 17.9663 9.19886 18.1995C11.2332 18.4326 13.2806 17.8891 14.9313 16.6775H14.9301C14.9676 16.7275 15.0076 16.775 15.0526 16.8213L19.8651 21.6338C20.0995 21.8683 20.4174 22.0001 20.749 22.0003C21.0806 22.0004 21.3987 21.8688 21.6332 21.6344C21.8678 21.4 21.9996 21.082 21.9997 20.7504C21.9998 20.4189 21.8682 20.1008 21.6338 19.8663L16.8213 15.0538C16.7766 15.0085 16.7286 14.968 16.6776 14.93ZM17.0001 10.125C17.0001 11.0278 16.8223 11.9218 16.4768 12.756C16.1313 13.5901 15.6248 14.348 14.9864 14.9864C14.348 15.6248 13.5901 16.1312 12.756 16.4767C11.9219 16.8222 11.0279 17 10.1251 17C9.22225 17 8.32825 16.8222 7.49414 16.4767C6.66002 16.1312 5.90213 15.6248 5.26373 14.9864C4.62532 14.348 4.11891 13.5901 3.77341 12.756C3.42791 11.9218 3.25008 11.0278 3.25008 10.125C3.25008 8.30164 3.97441 6.55296 5.26373 5.26364C6.55304 3.97433 8.30172 3.25 10.1251 3.25C11.9484 3.25 13.6971 3.97433 14.9864 5.26364C16.2758 6.55296 17.0001 8.30164 17.0001 10.125Z" fill="#1E1E1E"/>
</svg>
