<svg width="20" height="20" viewBox="0 0 20 20" fill="none" xmlns="http://www.w3.org/2000/svg">
<path d="M6.65425 19C13.447 19 17.1629 13.6124 17.1629 8.94854C17.1629 8.79777 17.1629 8.64486 17.1561 8.4941C17.8796 7.9928 18.5039 7.37217 19 6.66127C18.3242 6.94648 17.6081 7.13445 16.8749 7.21909C17.6472 6.77718 18.2257 6.08189 18.5027 5.26242C17.7771 5.67392 16.9829 5.96279 16.1549 6.11638C15.5982 5.5489 14.8616 5.17296 14.0591 5.04679C13.2566 4.92062 12.4331 5.05127 11.716 5.4185C10.9989 5.78573 10.4284 6.36904 10.0928 7.07809C9.7571 7.78713 9.67508 8.58233 9.85938 9.34052C8.39096 9.27004 6.95442 8.90489 5.64292 8.26876C4.33143 7.63263 3.17427 6.73972 2.2465 5.64794C1.77551 6.42661 1.63177 7.34767 1.84448 8.22409C2.05718 9.10052 2.61039 9.8666 3.39175 10.3668C2.80623 10.3477 2.23359 10.1972 1.72 9.92741V9.97587C1.72101 10.7916 2.01622 11.5819 2.55573 12.2133C3.09525 12.8447 3.84597 13.2785 4.681 13.4412C4.36405 13.5248 4.03663 13.5665 3.70788 13.5651C3.47611 13.5657 3.2448 13.5452 3.01712 13.5037C3.25313 14.2059 3.71268 14.8198 4.3314 15.2595C4.95012 15.6992 5.69703 15.9426 6.4675 15.9557C5.15862 16.9397 3.54183 17.4734 1.8775 17.4709C1.58424 17.472 1.29118 17.4559 1 17.4224C2.6892 18.4532 4.65096 19.0006 6.65425 19Z" fill="#1E1E1E" fill-opacity="0.75"/>
</svg>
